Coordinates
version=1
nRows=42
nColumns=20
inDegrees=no

Units are S.I. units (second, meters, Newtons, ...)
If the header above contains a line with 'inDegrees', this indicates whether rotational values are in degrees (yes) or radians (no).

endheader
time	pelvis_tilt	pelvis_list	pelvis_rotation	pelvis_tx	pelvis_ty	pelvis_tz	hip_flexion_r	hip_adduction_r	hip_rotation_r	knee_extension_r	ankle_dorsiflexion_r	hip_flexion_l	hip_adduction_l	hip_rotation_l	knee_extension_l	ankle_dorsiflexion_l	lumbar_extension	lumbar_bending	lumbar_rotation
180.00000000	-0.07921178	-0.03764624	-0.01236639	1.18020345	0.99132524	-0.59471813	0.49045700	0.01942219	-0.38049872	-0.23125336	0.17352564	-0.12011969	-0.02282882	-0.31856952	-0.32188885	0.34003090	-0.00384707	0.10353794	-0.18296923
180.01000000	-0.07845690	-0.04696841	-0.00637167	1.18244355	0.99140020	-0.59355703	0.48594382	0.02630295	-0.38097740	-0.24336434	0.15996073	-0.11368038	-0.04140393	-0.30946363	-0.36008965	0.32967570	-0.00076815	0.11510586	-0.18835823
180.02000000	-0.07754994	-0.05614940	-0.00069551	1.18465043	0.99149424	-0.59236058	0.48136816	0.03317331	-0.38117962	-0.25569502	0.14698536	-0.10658733	-0.05998707	-0.30059105	-0.39900128	0.31662276	0.00202025	0.12647850	-0.19332691
180.03000000	-0.07637332	-0.06510004	0.00442302	1.18678875	0.99162526	-0.59109158	0.47661005	0.04006911	-0.38092078	-0.26841217	0.13519677	-0.09798194	-0.07865583	-0.29204743	-0.43957736	0.29873208	0.00427431	0.13751412	-0.19748038
180.04000000	-0.07483632	-0.07375210	0.00879406	1.18882556	0.99180646	-0.58972035	0.47155010	0.04703468	-0.38007286	-0.28159636	0.12510944	-0.08715786	-0.09746586	-0.28389712	-0.48254556	0.27441003	0.00579436	0.14809754	-0.20048878
180.05000000	-0.07288550	-0.08206003	0.01229431	1.19073099	0.99204581	-0.58822744	0.46606867	0.05411903	-0.37858224	-0.29521221	0.11712200	-0.07360846	-0.11643745	-0.27616485	-0.52832859	0.24280853	0.00644189	0.15814316	-0.20211123
180.06000000	-0.07051231	-0.08999818	0.01487786	1.19247866	0.99234632	-0.58660533	0.46004794	0.06136760	-0.37647913	-0.30909496	0.11149335	-0.05704821	-0.13554384	-0.26883189	-0.57700539	0.20394788	0.00615187	0.16759309	-0.20221170
180.07000000	-0.06775645	-0.09755386	0.01657923	1.19404601	0.99270729	-0.58485917	0.45337725	0.06881018	-0.37387632	-0.32295623	0.10833051	-0.03740875	-0.15470263	-0.26183817	-0.62831298	0.15874646	0.00493871	0.17641041	-0.20076555
180.08000000	-0.06470388	-0.10471727	0.01750813	1.19541440	0.99312604	-0.58300630	0.44596117	0.07644744	-0.37095656	-0.33640914	0.10759027	-0.01481429	-0.17377128	-0.25509063	-0.68168410	0.10894964	0.00289420	0.18456886	-0.19785632
180.09000000	-0.06147901	-0.11147016	0.01783623	1.19656925	0.99360000	-0.58107451	0.43772841	0.08423848	-0.36794929	-0.34900983	0.10909453	0.01045678	-0.19254786	-0.24847748	-0.73631127	0.05696083	0.00017708	0.19204061	-0.19366295
180.10000000	-0.05823141	-0.11777545	0.01777705	1.19750021	0.99412863	-0.57909927	0.42863950	0.09209249	-0.36509962	-0.36030886	0.11255767	0.03801611	-0.21077793	-0.24188702	-0.79122619	0.00558989	-0.00300545	0.19878445	-0.18843873
180.11000000	-0.05511830	-0.12356993	0.01756067	1.19820147	0.99471504	-0.57712009	0.41869057	0.09986703	-0.36263384	-0.36990431	0.11762223	0.06740812	-0.22816783	-0.23522906	-0.84538289	-0.04225379	-0.00642231	0.20473690	-0.18248361
180.12000000	-0.05228518	-0.12876171	0.01740588	1.19867213	0.99536680	-0.57517633	0.40791180	0.10737431	-0.36072639	-0.37748741	0.12389765	0.09814567	-0.24440400	-0.22845660	-0.89773501	-0.08388590	-0.00984636	0.20980819	-0.17611256
180.13000000	-0.04984734	-0.13323355	0.01749284	1.19891655	0.99609600	-0.57330309	0.39636001	0.11439538	-0.35947329	-0.38287335	0.13099703	0.12973587	-0.25917686	-0.22158469	-0.94729999	-0.11714470	-0.01308150	0.21388456	-0.16962311
180.14000000	-0.04787528	-0.13685179	0.01793989	1.19894454	0.99691827	-0.57152768	0.38410687	0.12070089	-0.35887589	-0.38601292	0.13856722	0.16169567	-0.27220699	-0.21470381	-0.99320627	-0.14061691	-0.01598529	0.21683685	-0.16326558
180.15000000	-0.04638660	-0.13947984	0.01878759	1.19877122	0.99785109	-0.56986711	0.37122524	0.12607505	-0.35883765	-0.38698450	0.14630938	0.19355987	-0.28327033	-0.20798493	-1.03472293	-0.15375656	-0.01848345	0.21853458	-0.15721955
180.16000000	-0.04534559	-0.14099439	0.01999268	1.19841637	0.99891133	-0.56832707	0.35777705	0.13033924	-0.35917430	-0.38596992	0.15398938	0.22488504	-0.29221923	-0.20167461	-1.07127337	-0.15688022	-0.02057408	0.21886338	-0.15157948
180.17000000	-0.04467078	-0.14130159	0.02143305	1.19790338	1.00011246	-0.56690254	0.34380558	0.13337130	-0.35963588	-0.38322039	0.16143905	0.25525349	-0.29899629	-0.19608014	-1.10243648	-0.15104605	-0.02232111	0.21774299	-0.14635125
180.18000000	-0.04424921	-0.14035108	0.02292296	1.19725759	1.00146167	-0.56557974	0.32933449	0.13511782	-0.35993742	-0.37901979	0.16855078	0.28428022	-0.30363947	-0.19154633	-1.12793855	-0.13784636	-0.02383821	0.21514306	-0.14145968
180.19000000	-0.04395491	-0.13814577	0.02423638	1.19650457	1.00295739	-0.56433922	0.31437376	0.13559793	-0.35979317	-0.37365204	0.17526824	0.31162383	-0.30627810	-0.18842753	-1.14763929	-0.11915749	-0.02526605	0.21109413	-0.13676557
180.20000000	-0.04366876	-0.13474593	0.02513469	1.19566812	1.00458742	-0.56315925	0.29893145	0.13489869	-0.35894965	-0.36737730	0.18157577	0.33700053	-0.30712079	-0.18705891	-1.16151440	-0.09689290	-0.02674685	0.20569196	-0.13208930
180.21000000	-0.04329657	-0.13026734	0.02539497	1.19476868	1.00632809	-0.56201907	0.28302856	0.13316353	-0.35721263	-0.36041917	0.18748830	0.36019875	-0.30643708	-0.18773122	-1.16963642	-0.07279788	-0.02840017	0.19909450	-0.12723752
180.22000000	-0.04278274	-0.12487368	0.02483488	1.19382211	1.00814460	-0.56090151	0.26671360	0.13057590	-0.35446510	-0.35296225	0.19304293	0.38109117	-0.30453503	-0.19067159	-1.17215493	-0.04830994	-0.03030372	0.19151179	-0.12202908
180.23000000	-0.04211758	-0.11876428	0.02333148	1.19283903	1.00999252	-0.55979456	0.25007338	0.12734075	-0.35067466	-0.34515788	0.19829240	0.39964084	-0.30173651	-0.19603150	-1.16927662	-0.02449329	-0.03248175	0.18319036	-0.11631731
180.24000000	-0.04133757	-0.11215902	0.02083227	1.19182500	1.01182048	-0.55869200	0.23323732	0.12366609	-0.34589089	-0.33713433	0.20330043	0.41589949	-0.29835224	-0.20388098	-1.16124556	-0.00204133	-0.03490232	0.17439448	-0.11000644
180.25000000	-0.04051866	-0.10528225	0.01735805	1.19078121	1.01357359	-0.55759330	0.21637390	0.11974688	-0.34023468	-0.32900801	0.20813834	0.42999727	-0.29465789	-0.21420706	-1.14832403	0.01866895	-0.03748330	0.16538681	-0.10306114
180.26000000	-0.03976420	-0.09834763	0.01299819	1.18970576	1.01519733	-0.55650290	0.19967963	0.11575243	-0.33388204	-0.32089249	0.21288246	0.44212498	-0.29087283	-0.22691413	-1.13077442	0.03749189	-0.04010544	0.15641118	-0.09550902
180.27000000	-0.03918969	-0.09154545	0.00789966	1.18859517	1.01664141	-0.55542931	0.18336237	0.11181810	-0.32704535	-0.31290368	0.21761169	0.45251120	-0.28714304	-0.24182456	-1.10884300	0.05441917	-0.04262992	0.14767909	-0.08743663
180.28000000	-0.03890711	-0.08503328	0.00225141	1.18744593	1.01786319	-0.55438413	0.16762204	0.10804140	-0.31995432	-0.30516026	0.22240466	0.46139761	-0.28352958	-0.25867914	-1.08274637	0.06949562	-0.04491707	0.13936116	-0.07897984
180.29000000	-0.03901108	-0.07893055	-0.00373402	1.18625593	1.01883018	-0.55338112	0.15263179	0.10448204	-0.31283850	-0.29778000	0.22733654	0.46901546	-0.28000395	-0.27713800	-1.05266162	0.08275762	-0.04684327	0.13158337	-0.07031008
180.30000000	-0.03956895	-0.07331695	-0.00983932	1.18502558	1.01952154	-0.55243541	0.13852253	0.10116534	-0.30591239	-0.29087285	0.23247513	0.47556592	-0.27645122	-0.29678360	-1.01872131	0.09420016	-0.04831364	0.12442788	-0.06161831
180.31000000	-0.04061535	-0.06823432	-0.01585976	1.18375858	1.01992844	-0.55156272	0.12537229	0.09808819	-0.29936418	-0.28453249	0.23787668	0.48120620	-0.27268134	-0.31712755	-0.98101411	0.10377227	-0.04926927	0.11793723	-0.05309864
180.32000000	-0.04215137	-0.06369155	-0.02161706	1.18246238	1.02005326	-0.55077868	0.11320127	0.09522671	-0.29334813	-0.27882771	0.24358145	0.48604190	-0.26844819	-0.33762346	-0.93959238	0.11139511	-0.04968877	0.11212108	-0.04493378
180.33000000	-0.04414746	-0.05967151	-0.02696864	1.18114822	1.01990808	-0.55009815	0.10197242	0.09254468	-0.28798057	-0.27379530	0.24960963	0.49012608	-0.26347529	-0.35768706	-0.89448718	0.11699353	-0.04958516	0.10696413	-0.03728355
180.34000000	-0.04654913	-0.05613907	-0.03181196	1.17983084	1.01951243	-0.54953460	0.09159708	0.09000168	-0.28333915	-0.26943591	0.25595790	0.49346418	-0.25748604	-0.37672457	-0.84573123	0.12053114	-0.04899926	0.10243427	-0.03027726
180.35000000	-0.04928431	-0.05304899	-0.03608437	1.17852780	1.01889080	-0.54909955	0.08194474	0.08756005	-0.27946430	-0.26571387	0.26259725	0.49602425	-0.25023573	-0.39416809	-0.79338950	0.12203961	-0.04799125	0.09848974	-0.02400972
180.36000000	-0.05227105	-0.05035272	-0.03975952	1.17725856	1.01807013	-0.54880206	0.07285589	0.08518956	-0.27636217	-0.26256133	0.26947261	0.49775134	-0.24154189	-0.40951541	-0.73759628	0.12163568	-0.04663201	0.09508447	-0.01854032
180.37000000	-0.05542488	-0.04800326	-0.04284180	1.17604329	1.01707755	-0.54864833	0.06415637	0.08286964	-0.27400820	-0.25988654	0.27650476	0.49858480	-0.23130946	-0.42236920	-0.67859655	0.11952336	-0.04499536	0.09217130	-0.01389412
180.38000000	-0.05866463	-0.04595774	-0.04535979	1.17490169	1.01593858	-0.54864146	0.05567181	0.08058876	-0.27235087	-0.25758529	0.28359493	0.49847727	-0.21954793	-0.43246946	-0.61678830	0.11598225	-0.04315222	0.08970289	-0.01006416
180.39000000	-0.06191661	-0.04417793	-0.04735965	1.17385181	1.01467588	-0.54878124	0.04724062	0.07834169	-0.27131555	-0.25555405	0.29063211	0.49741364	-0.20637816	-0.43971304	-0.55276092	0.11134655	-0.04116708	0.08763081	-0.00701434
180.40000000	-0.06511677	-0.04262901	-0.04889917	1.17290911	1.01330865	-0.54906420	0.03872432	0.07612517	-0.27080854	-0.25370332	0.29750287	0.49542825	-0.19202804	-0.44415562	-0.48732381	0.10598018	-0.03909655	0.08590347	-0.00468266
180.41000000	-0.06821125	-0.04127733	-0.05004252	1.17208589	1.01185260	-0.54948374	0.03001448	0.07393278	-0.27072126	-0.25196933	0.30410299	0.49261807	-0.17681744	-0.44599448	-0.42151847	0.10025325	-0.03698970	0.08446361	-0.00298472
